<?xml version="1.0" encoding="UTF-8"?>
<svg width="400" height="400" viewBox="0 0 400 400" fill="none" xmlns="http://www.w3.org/2000/svg">
  <!-- Background elements -->
  <circle cx="200" cy="200" r="150" fill="#1ea659" opacity="0.2"/>
  <circle cx="50" cy="50" r="5" fill="#ffffff" opacity="0.7"/>
  <circle cx="350" cy="70" r="5" fill="#ffffff" opacity="0.7"/>
  <circle cx="70" cy="350" r="5" fill="#ffffff" opacity="0.7"/>
  <circle cx="330" cy="330" r="5" fill="#ffffff" opacity="0.7"/>
  <circle cx="150" cy="50" r="3" fill="#ffffff" opacity="0.7"/>
  <circle cx="250" cy="50" r="3" fill="#ffffff" opacity="0.7"/>
  <circle cx="50" cy="150" r="3" fill="#ffffff" opacity="0.7"/>
  <circle cx="350" cy="150" r="3" fill="#ffffff" opacity="0.7"/>
  <circle cx="50" cy="250" r="3" fill="#ffffff" opacity="0.7"/>
  <circle cx="350" cy="250" r="3" fill="#ffffff" opacity="0.7"/>
  <circle cx="150" cy="350" r="3" fill="#ffffff" opacity="0.7"/>
  <circle cx="250" cy="350" r="3" fill="#ffffff" opacity="0.7"/>
  
  <!-- Cloud shapes -->
  <path d="M100,180 Q120,160 140,180 Q160,200 180,180 Q200,160 220,180 Q240,200 260,180 Q280,160 300,180 L300,220 L100,220 Z" fill="#1ea659" opacity="0.3"/>
  
  <!-- Quran stand -->
  <path d="M150,280 L250,280 L240,300 L160,300 Z" fill="#8B4513" stroke="#5D2906" stroke-width="2"/>
  
  <!-- Quran book -->
  <g transform="translate(200, 200) rotate(-5) translate(-200, -200)">
    <!-- Book binding -->
    <rect x="150" y="150" width="100" height="20" rx="5" fill="#8B4513" stroke="#5D2906" stroke-width="2"/>
    
    <!-- Book pages - left side -->
    <path d="M150,150 Q150,120 180,120 L180,170 Q150,170 150,150 Z" fill="#F5F5F5" stroke="#CCCCCC" stroke-width="1"/>
    
    <!-- Book pages - right side -->
    <path d="M250,150 Q250,120 220,120 L220,170 Q250,170 250,150 Z" fill="#F5F5F5" stroke="#CCCCCC" stroke-width="1"/>
    
    <!-- Open book pages -->
    <rect x="180" y="120" width="40" height="50" fill="#F5F5F5" stroke="#CCCCCC" stroke-width="1"/>
    
    <!-- Text lines on left page -->
    <line x1="160" y1="130" x2="190" y2="130" stroke="#333333" stroke-width="1"/>
    <line x1="160" y1="140" x2="190" y2="140" stroke="#333333" stroke-width="1"/>
    <line x1="160" y1="150" x2="190" y2="150" stroke="#333333" stroke-width="1"/>
    <line x1="160" y1="160" x2="190" y2="160" stroke="#333333" stroke-width="1"/>
    
    <!-- Text lines on right page -->
    <line x1="210" y1="130" x2="240" y2="130" stroke="#333333" stroke-width="1"/>
    <line x1="210" y1="140" x2="240" y2="140" stroke="#333333" stroke-width="1"/>
    <line x1="210" y1="150" x2="240" y2="150" stroke="#333333" stroke-width="1"/>
    <line x1="210" y1="160" x2="240" y2="160" stroke="#333333" stroke-width="1"/>
    
    <!-- Decorative elements -->
    <path d="M180,120 Q200,110 220,120" fill="none" stroke="#8B4513" stroke-width="2"/>
    <circle cx="200" cy="145" r="10" fill="#1ea659" opacity="0.5"/>
  </g>
</svg>
